<svg width="1440" height="1024" fill="none" xmlns="http://www.w3.org/2000/svg"><path fill="#fff" d="M0 0h1440v1024H0z"/><g filter="url(#a)"><rect x="470" y="253" width="500" height="519" rx="16" fill="#fff"/><path d="M492.895 281.424h-3.799v-1.533h3.799c.735 0 1.331-.118 1.787-.352.455-.234.787-.56.996-.977.215-.416.322-.891.322-1.425a3.03 3.03 0 0 0-.322-1.377c-.209-.43-.541-.775-.996-1.035-.456-.267-1.052-.401-1.787-.401h-3.36V287h-1.885v-14.219h5.245c1.074 0 1.982.186 2.724.557.742.371 1.305.885 1.69 1.543.384.651.576 1.396.576 2.236 0 .912-.192 1.69-.576 2.334-.385.645-.948 1.136-1.69 1.475-.742.332-1.65.498-2.724.498zm11.347 5.771c-.735 0-1.403-.123-2.002-.371a4.556 4.556 0 0 1-1.533-1.064 4.743 4.743 0 0 1-.977-1.621 5.968 5.968 0 0 1-.341-2.051v-.41c0-.86.127-1.625.381-2.295a5.11 5.11 0 0 1 1.035-1.719 4.418 4.418 0 0 1 1.484-1.064 4.26 4.26 0 0 1 1.719-.362c.755 0 1.406.13 1.953.391.553.26 1.006.625 1.357 1.094.352.462.612 1.009.782 1.64.169.625.254 1.309.254 2.051v.811h-7.891v-1.475h6.084v-.137a4.518 4.518 0 0 0-.293-1.367 2.462 2.462 0 0 0-.781-1.094c-.358-.286-.847-.429-1.465-.429-.41 0-.788.088-1.133.263-.345.17-.641.424-.889.762a3.855 3.855 0 0 0-.576 1.24c-.137.489-.205 1.052-.205 1.69v.41c0 .501.068.973.205 1.416.143.436.348.82.615 1.152.274.332.603.593.987.782.39.188.833.283 1.328.283.638 0 1.178-.131 1.621-.391.443-.26.83-.609 1.162-1.045l1.094.869a5.096 5.096 0 0 1-.869.987 4.16 4.16 0 0 1-1.299.761c-.508.196-1.11.293-1.807.293zm13.047-10.761v1.494h-4.883V287H510.6v-10.566h6.689zm3.525 7.705 4.874-7.705h1.816V287h-1.816v-7.705L520.814 287h-1.796v-10.566h1.796v7.705zm13.819 1.572c.429 0 .827-.088 1.191-.264.365-.176.664-.416.899-.722.234-.313.367-.668.4-1.065h1.719a3.222 3.222 0 0 1-.635 1.748 4.333 4.333 0 0 1-1.514 1.299 4.384 4.384 0 0 1-2.06.488c-.794 0-1.488-.14-2.08-.42a4.129 4.129 0 0 1-1.465-1.152 5.138 5.138 0 0 1-.869-1.68 7.076 7.076 0 0 1-.283-2.021v-.41c0-.71.094-1.38.283-2.012a5.124 5.124 0 0 1 .869-1.689 4.12 4.12 0 0 1 1.465-1.153c.592-.28 1.286-.42 2.08-.42.827 0 1.549.17 2.168.508a3.736 3.736 0 0 1 1.455 1.367c.358.573.553 1.224.586 1.953h-1.719a2.602 2.602 0 0 0-.371-1.181 2.309 2.309 0 0 0-.859-.84c-.358-.215-.778-.322-1.26-.322-.554 0-1.019.11-1.397.332a2.438 2.438 0 0 0-.888.879 4.1 4.1 0 0 0-.469 1.22 6.727 6.727 0 0 0-.137 1.358v.41c0 .462.046.918.137 1.367.091.449.244.856.459 1.221.221.364.517.657.889.879.377.215.846.322 1.406.322zm10.547-9.277V287h-1.817v-10.566h1.817zm3.545 0v1.464h-8.838v-1.464h8.838zm3.584 2.031v12.597h-1.817v-14.628h1.66l.157 2.031zm7.119 3.164v.205c0 .768-.091 1.481-.274 2.139a5.264 5.264 0 0 1-.8 1.699 3.65 3.65 0 0 1-1.28 1.123c-.508.267-1.09.4-1.748.4-.67 0-1.263-.11-1.777-.332a3.497 3.497 0 0 1-1.309-.967 4.943 4.943 0 0 1-.859-1.523 8.825 8.825 0 0 1-.43-2.002v-1.094a9.164 9.164 0 0 1 .44-2.099 5.215 5.215 0 0 1 .849-1.582 3.486 3.486 0 0 1 1.299-1.006c.508-.235 1.094-.352 1.758-.352.664 0 1.253.13 1.767.391.515.254.948.618 1.299 1.094.352.475.616 1.045.791 1.709.183.657.274 1.39.274 2.197zm-1.817.205v-.205c0-.527-.055-1.022-.166-1.484a3.748 3.748 0 0 0-.517-1.231 2.47 2.47 0 0 0-.879-.84c-.358-.208-.785-.312-1.279-.312-.456 0-.853.078-1.192.234a2.566 2.566 0 0 0-.849.635c-.235.26-.427.56-.577.898a5.2 5.2 0 0 0-.322 1.035v2.53c.13.455.313.885.547 1.289.234.397.547.719.937.967.391.24.883.361 1.475.361.488 0 .908-.101 1.26-.303.358-.208.651-.491.879-.849a3.87 3.87 0 0 0 .517-1.231c.111-.469.166-.967.166-1.494zm10.352 3.359v-5.439c0-.417-.085-.778-.254-1.084a1.664 1.664 0 0 0-.742-.723c-.332-.169-.742-.254-1.231-.254-.455 0-.856.078-1.201.235a2.098 2.098 0 0 0-.801.615 1.352 1.352 0 0 0-.283.82h-1.806c0-.377.097-.752.293-1.123.195-.371.475-.706.839-1.006a4.203 4.203 0 0 1 1.328-.722 5.222 5.222 0 0 1 1.739-.274c.768 0 1.445.13 2.031.391a3.04 3.04 0 0 1 1.387 1.182c.338.52.508 1.175.508 1.962v4.922c0 .352.029.726.087 1.123.066.397.16.739.284 1.026V287h-1.885a3.373 3.373 0 0 1-.215-.83 6.71 6.71 0 0 1-.078-.977zm.312-4.599.02 1.269h-1.826c-.515 0-.974.043-1.377.127a3.145 3.145 0 0 0-1.016.362 1.708 1.708 0 0 0-.625.615 1.633 1.633 0 0 0-.215.849c0 .332.075.635.225.909.15.273.374.491.674.654.306.156.68.234 1.123.234.553 0 1.041-.117 1.465-.351a3.061 3.061 0 0 0 1.006-.86c.253-.338.39-.667.41-.986l.771.869c-.045.274-.169.576-.371.908a4.36 4.36 0 0 1-2.002 1.709c-.456.196-.97.293-1.543.293-.716 0-1.344-.14-1.885-.42a3.23 3.23 0 0 1-1.25-1.123 2.971 2.971 0 0 1-.439-1.591c0-.567.111-1.065.332-1.495.221-.436.54-.797.957-1.084.417-.293.918-.514 1.504-.664a7.97 7.97 0 0 1 1.963-.224h2.099zm4.493 6.406v-10.566h1.806v9.082h4.864v-9.082h1.816V287h-8.486zm9.736-1.484-.176 4.619h-1.611V287h-1.377v-1.484h3.164zm3.916-1.377 4.873-7.705h1.816V287h-1.816v-7.705L586.42 287h-1.797v-10.566h1.797v7.705zm11.728-2.178h1.954L597.045 287h-1.953l3.056-5.039zm1.514-5.527h4.414V287h-1.806v-9.102h-2.608c-.514 0-.934.088-1.26.264-.325.169-.563.391-.713.664a1.757 1.757 0 0 0-.019 1.68c.137.26.351.475.644.644.293.17.671.254 1.133.254h3.311v1.485h-3.311c-.605 0-1.142-.082-1.611-.244a3.537 3.537 0 0 1-1.191-.674 2.944 2.944 0 0 1-.743-1.026 3.258 3.258 0 0 1-.254-1.289c0-.462.088-.888.264-1.279.182-.391.443-.732.781-1.025a3.585 3.585 0 0 1 1.26-.674c.501-.163 1.071-.244 1.709-.244z" fill="#151317"/><g clip-path="url(#b)"><path d="m488.891 321.391 5.601-8.766H496V324h-1.508v-8.773L488.891 324h-1.5v-11.375h1.5v8.766zm14.492.687 2.875-6.531h1.39L503.883 324h-1l-3.75-8.453h1.39l2.86 6.531zm-3.281-6.531V324h-1.446v-8.453h1.446zm6.515 8.453v-8.453h1.453V324h-1.453zm5.492-4.031h1.563L511.227 324h-1.563l2.445-4.031zm1.211-4.422h3.532V324h-1.446v-7.281h-2.086c-.411 0-.747.07-1.008.211-.26.135-.45.312-.57.531a1.395 1.395 0 0 0-.015 1.344c.109.208.281.38.515.515.235.136.537.203.906.203h2.649v1.188h-2.649c-.484 0-.914-.065-1.289-.195a2.849 2.849 0 0 1-.953-.539 2.369 2.369 0 0 1-.594-.821 2.605 2.605 0 0 1-.203-1.031c0-.37.071-.711.211-1.023.146-.313.354-.586.625-.821a2.877 2.877 0 0 1 1.008-.539c.401-.13.857-.195 1.367-.195z" fill="#151317"/></g><rect x="486" y="338" width="468" height="48" rx="8" fill="#F8F8F8"/><path d="M506.84 357.929 503.545 367h-1.347l3.794-9.953h.868l-.02.882zm2.762 9.071-3.302-9.071-.021-.882h.868l3.808 9.953h-1.353zm-.171-3.685v1.081h-5.592v-1.081h5.592zm3.93-2.29v8.819h-1.271v-10.24h1.162l.109 1.421zm4.984 2.215v.144c0 .538-.064 1.037-.192 1.497a3.662 3.662 0 0 1-.56 1.189c-.242.338-.54.6-.896.786a2.586 2.586 0 0 1-1.223.281c-.47 0-.884-.078-1.245-.233a2.458 2.458 0 0 1-.916-.676 3.47 3.47 0 0 1-.601-1.067 6.186 6.186 0 0 1-.301-1.401v-.766a6.417 6.417 0 0 1 .308-1.47c.15-.433.348-.802.594-1.107.251-.31.554-.545.91-.704a2.904 2.904 0 0 1 1.23-.246c.465 0 .877.091 1.237.273.36.178.664.433.91.766s.43.731.553 1.196c.128.46.192.973.192 1.538zm-1.272.144v-.144c0-.369-.038-.715-.116-1.039a2.615 2.615 0 0 0-.362-.861 1.724 1.724 0 0 0-.616-.588 1.746 1.746 0 0 0-.895-.219 1.98 1.98 0 0 0-.834.164c-.232.11-.431.258-.595.445a2.359 2.359 0 0 0-.403.629c-.1.232-.176.473-.226.724v1.771a4 4 0 0 0 .383.902c.164.278.383.504.656.677.274.168.618.253 1.033.253.341 0 .635-.071.881-.212.251-.146.456-.344.616-.595.164-.251.285-.538.362-.861.078-.328.116-.677.116-1.046zm5.353-3.78V367h-1.272v-7.396h1.272zm2.481 0v1.025h-6.186v-1.025h6.186zm3.405 6.63 2.057-6.63h1.354l-2.967 8.538c-.068.182-.16.378-.274.587-.109.215-.25.417-.423.609a2.044 2.044 0 0 1-.629.465 1.894 1.894 0 0 1-.868.184c-.101 0-.228-.013-.383-.041a3.633 3.633 0 0 1-.328-.068l-.007-1.025c.036.004.093.009.171.013.082.009.139.014.171.014.287 0 .53-.039.731-.116.201-.073.369-.199.506-.376.141-.173.262-.413.362-.718l.527-1.436zm-1.511-6.63 1.921 5.742.328 1.333-.909.465-2.721-7.54h1.381zm7.328 1.421v8.819h-1.272v-10.24h1.163l.109 1.421zm4.983 2.215v.144c0 .538-.063 1.037-.191 1.497a3.684 3.684 0 0 1-.561 1.189c-.241.338-.54.6-.895.786a2.593 2.593 0 0 1-1.224.281c-.469 0-.884-.078-1.244-.233a2.458 2.458 0 0 1-.916-.676 3.472 3.472 0 0 1-.602-1.067 6.187 6.187 0 0 1-.3-1.401v-.766a6.418 6.418 0 0 1 .307-1.47 3.67 3.67 0 0 1 .595-1.107c.251-.31.554-.545.909-.704a2.912 2.912 0 0 1 1.231-.246c.465 0 .877.091 1.237.273.36.178.663.433.909.766s.431.731.554 1.196c.128.46.191.973.191 1.538zm-1.271.144v-.144c0-.369-.039-.715-.116-1.039a2.637 2.637 0 0 0-.363-.861 1.713 1.713 0 0 0-.615-.588 1.749 1.749 0 0 0-.895-.219 1.98 1.98 0 0 0-.834.164c-.233.11-.431.258-.595.445a2.334 2.334 0 0 0-.403.629 3.539 3.539 0 0 0-.226.724v1.771c.091.319.219.619.383.902.164.278.383.504.656.677.273.168.618.253 1.032.253.342 0 .636-.071.882-.212.251-.146.456-.344.615-.595.164-.251.285-.538.363-.861.077-.328.116-.677.116-1.046z" fill="#808185"/><g clip-path="url(#c)"><path d="M494.594 411.711v1.234h-4.664v-1.234h4.664zm-7.438 2.672h1.5c.084.536.222.995.414 1.375.198.38.487.672.868.875.38.198.89.297 1.531.297.505 0 .942-.104 1.312-.313.37-.213.675-.505.914-.875.24-.37.417-.799.532-1.289a6.628 6.628 0 0 0 .179-1.57v-1.141c0-.484-.041-.932-.125-1.344a4.314 4.314 0 0 0-.375-1.117 2.965 2.965 0 0 0-.625-.851 2.522 2.522 0 0 0-.859-.539 2.988 2.988 0 0 0-1.086-.188c-.583 0-1.06.104-1.43.313a2.115 2.115 0 0 0-.844.89c-.192.38-.328.836-.406 1.367h-1.5c.078-.75.284-1.408.617-1.976a3.546 3.546 0 0 1 1.383-1.344c.594-.323 1.321-.484 2.18-.484.703 0 1.336.125 1.898.375.563.25 1.042.607 1.438 1.07.401.464.706 1.021.914 1.672.213.651.32 1.375.32 2.172v1.125c0 .797-.107 1.521-.32 2.172a4.875 4.875 0 0 1-.898 1.664c-.391.458-.86.812-1.407 1.062a4.272 4.272 0 0 1-1.812.375c-.912 0-1.672-.164-2.281-.492a3.608 3.608 0 0 1-1.415-1.352 4.955 4.955 0 0 1-.617-1.929zm16.219-4.836v1.195h-4.086v-1.195h4.086zm1.273 0V418h-1.445v-8.453h1.445zm-5.71 0h1.453l-.219 4.078c-.037.63-.096 1.187-.18 1.672a5.664 5.664 0 0 1-.328 1.234 2.56 2.56 0 0 1-.516.844 1.888 1.888 0 0 1-.734.477 3.031 3.031 0 0 1-.992.148h-.453v-1.273l.312-.024c.224-.015.414-.068.571-.156a1.13 1.13 0 0 0 .406-.391c.109-.177.198-.403.265-.679.073-.276.128-.605.165-.985.041-.38.072-.823.093-1.328l.157-3.617zm11.546 8.609a4.155 4.155 0 0 1-1.601-.297 3.64 3.64 0 0 1-1.227-.851 3.796 3.796 0 0 1-.781-1.297 4.764 4.764 0 0 1-.273-1.641v-.328c0-.687.101-1.299.304-1.836.203-.541.479-1 .828-1.375a3.535 3.535 0 0 1 1.188-.851 3.407 3.407 0 0 1 1.375-.289c.604 0 1.125.104 1.562.312.443.208.805.5 1.086.875.282.37.49.807.625 1.313.136.5.203 1.047.203 1.64v.649h-6.312V413h4.867v-.109a3.622 3.622 0 0 0-.234-1.094 1.968 1.968 0 0 0-.625-.875c-.287-.229-.677-.344-1.172-.344a1.962 1.962 0 0 0-1.617.82 3.061 3.061 0 0 0-.461.993c-.11.39-.164.841-.164 1.351v.328c0 .401.054.779.164 1.133.114.349.278.656.492.922.219.266.482.474.789.625a2.41 2.41 0 0 0 1.062.227c.511 0 .943-.105 1.297-.313.355-.208.664-.487.93-.836l.875.695a4.041 4.041 0 0 1-.695.789c-.281.25-.628.454-1.039.61-.407.156-.888.234-1.446.234zm6.547-8.609V418h-1.445v-8.453h1.445zm5.547 0-4.008 4.844h-2.023l-.219-1.266h1.656l2.836-3.578h1.758zM521.023 418l-3.109-3.828.93-1.047 4.015 4.875h-1.836zm6.539-8.453V418h-1.453v-8.453h1.453zm2.836 0v1.172h-7.07v-1.172h7.07zm2.868 1.625v10.078h-1.454v-11.703h1.329l.125 1.625zm5.695 2.531v.164c0 .615-.073 1.185-.219 1.711a4.222 4.222 0 0 1-.64 1.36 2.926 2.926 0 0 1-1.024.898c-.406.213-.872.32-1.398.32-.537 0-1.011-.088-1.422-.265a2.793 2.793 0 0 1-1.047-.774 3.938 3.938 0 0 1-.688-1.219 7.056 7.056 0 0 1-.343-1.601v-.875a7.323 7.323 0 0 1 .351-1.68c.172-.495.399-.916.68-1.265a2.778 2.778 0 0 1 1.039-.805c.406-.188.875-.281 1.406-.281.532 0 1.003.104 1.414.312a2.84 2.84 0 0 1 1.039.875c.282.38.493.836.633 1.367.146.526.219 1.112.219 1.758zm-1.453.164v-.164c0-.422-.044-.818-.133-1.187a3.022 3.022 0 0 0-.414-.985 1.982 1.982 0 0 0-.703-.672c-.287-.166-.628-.25-1.024-.25-.364 0-.682.063-.953.188a2.054 2.054 0 0 0-.679.508 2.667 2.667 0 0 0-.461.718 4.09 4.09 0 0 0-.258.829v2.023c.104.365.25.708.437 1.031.188.318.438.576.75.774.313.192.706.289 1.18.289.391 0 .727-.081 1.008-.242a2.05 2.05 0 0 0 .703-.68c.187-.287.325-.615.414-.985.089-.374.133-.773.133-1.195zm2.914 0v-.179c0-.61.088-1.175.266-1.696.177-.526.432-.982.765-1.367a3.401 3.401 0 0 1 1.211-.906 3.755 3.755 0 0 1 1.594-.328c.594 0 1.127.109 1.601.328.48.213.886.515 1.219.906.339.385.596.841.774 1.367a5.24 5.24 0 0 1 .265 1.696v.179c0 .61-.088 1.175-.265 1.695a4.071 4.071 0 0 1-.774 1.368 3.548 3.548 0 0 1-1.211.906c-.469.213-1 .32-1.594.32a3.866 3.866 0 0 1-1.601-.32 3.637 3.637 0 0 1-1.219-.906 4.139 4.139 0 0 1-.765-1.368 5.202 5.202 0 0 1-.266-1.695zm1.445-.179v.179c0 .422.05.821.149 1.195.099.37.247.698.445.985.203.286.456.513.758.68.302.161.653.242 1.054.242.396 0 .743-.081 1.039-.242.303-.167.553-.394.75-.68.198-.287.347-.615.446-.985.104-.374.156-.773.156-1.195v-.179c0-.417-.052-.81-.156-1.18a3.036 3.036 0 0 0-.453-.992 2.156 2.156 0 0 0-.75-.688c-.297-.167-.646-.25-1.047-.25-.396 0-.745.083-1.047.25a2.247 2.247 0 0 0-.75.688 3.13 3.13 0 0 0-.445.992c-.099.37-.149.763-.149 1.18zm13.797-.477v1.172h-4.469v-1.172h4.469zm-4.164-3.664V418h-1.445v-8.453h1.445zm5.336 0V418h-1.453v-8.453h1.453zm8.062 3.664v1.172h-4.468v-1.172h4.468zm-4.164-3.664V418h-1.445v-8.453h1.445zm5.336 0V418h-1.453v-8.453h1.453zm7.313 7.008v-4.352a1.77 1.77 0 0 0-.203-.867 1.33 1.33 0 0 0-.594-.578c-.266-.136-.594-.203-.984-.203-.365 0-.685.062-.961.187a1.672 1.672 0 0 0-.641.492 1.082 1.082 0 0 0-.227.657h-1.445c0-.302.078-.602.234-.899.157-.297.381-.565.672-.804a3.362 3.362 0 0 1 1.063-.579c.417-.145.88-.218 1.391-.218.614 0 1.156.104 1.624.312a2.44 2.44 0 0 1 1.11.945c.271.417.406.941.406 1.571v3.937c0 .282.024.581.07.899.053.317.128.591.227.82V418h-1.508a2.715 2.715 0 0 1-.172-.664 5.446 5.446 0 0 1-.062-.781zm.25-3.68.015 1.016h-1.46a5.38 5.38 0 0 0-1.102.101 2.54 2.54 0 0 0-.813.289c-.218.13-.385.295-.5.492-.114.193-.171.42-.171.68 0 .266.059.508.179.727.12.218.3.393.539.523.245.125.545.188.899.188.442 0 .833-.094 1.172-.282.338-.187.606-.416.804-.687.203-.271.313-.534.328-.789l.618.695a2.122 2.122 0 0 1-.297.727 3.482 3.482 0 0 1-.649.765 3.49 3.49 0 0 1-.953.602 3.107 3.107 0 0 1-1.234.234c-.573 0-1.076-.112-1.508-.336a2.58 2.58 0 0 1-1-.898 2.383 2.383 0 0 1-.352-1.274c0-.453.089-.851.266-1.195a2.3 2.3 0 0 1 .766-.867 3.623 3.623 0 0 1 1.203-.531c.469-.12.992-.18 1.57-.18h1.68zm5.179 1.094h1.563L577.93 418h-1.563l2.445-4.031zm1.211-4.422h3.532V418h-1.446v-7.281h-2.086c-.411 0-.747.07-1.007.211a1.314 1.314 0 0 0-.571.531 1.405 1.405 0 0 0-.015 1.344c.109.208.281.38.515.515.235.136.537.203.907.203h2.648v1.188h-2.648c-.485 0-.914-.065-1.29-.195a2.858 2.858 0 0 1-.953-.539 2.353 2.353 0 0 1-.593-.821 2.588 2.588 0 0 1-.204-1.031c0-.37.071-.711.211-1.023a2.46 2.46 0 0 1 .625-.821 2.877 2.877 0 0 1 1.008-.539c.401-.13.857-.195 1.367-.195zm15.461 0v1.195h-4.273v-1.195h4.273zm-4.062 0V418h-1.445v-8.453h1.445zm5.344 0V418h-1.454v-8.453h1.454zm1.937 4.32v-.179c0-.61.089-1.175.266-1.696.177-.526.432-.982.765-1.367a3.41 3.41 0 0 1 1.211-.906 3.758 3.758 0 0 1 1.594-.328c.594 0 1.128.109 1.602.328.479.213.885.515 1.218.906.339.385.597.841.774 1.367a5.24 5.24 0 0 1 .265 1.696v.179c0 .61-.088 1.175-.265 1.695a4.054 4.054 0 0 1-.774 1.368 3.548 3.548 0 0 1-1.211.906c-.468.213-1 .32-1.593.32a3.867 3.867 0 0 1-1.602-.32 3.637 3.637 0 0 1-1.219-.906 4.139 4.139 0 0 1-.765-1.368 5.229 5.229 0 0 1-.266-1.695zm1.445-.179v.179c0 .422.05.821.149 1.195.099.37.247.698.445.985.203.286.456.513.758.68a2.21 2.21 0 0 0 1.055.242c.396 0 .742-.081 1.039-.242.302-.167.552-.394.75-.68.198-.287.346-.615.445-.985.104-.374.156-.773.156-1.195v-.179c0-.417-.052-.81-.156-1.18a3.036 3.036 0 0 0-.453-.992 2.156 2.156 0 0 0-.75-.688c-.297-.167-.646-.25-1.047-.25-.396 0-.745.083-1.047.25a2.247 2.247 0 0 0-.75.688 3.13 3.13 0 0 0-.445.992c-.099.37-.149.763-.149 1.18zm14.438-4.141V418h-1.445v-8.453h1.445zm-.492 3.883v1.187c-.292.11-.589.209-.891.297a8.226 8.226 0 0 1-.945.203 7.564 7.564 0 0 1-1.07.071c-.667 0-1.245-.115-1.735-.344a2.532 2.532 0 0 1-1.133-1.055c-.265-.474-.398-1.07-.398-1.789v-2.469h1.445V412c0 .469.071.849.211 1.141.141.291.346.507.617.648.271.135.602.203.993.203a7.45 7.45 0 0 0 1.054-.07 8.56 8.56 0 0 0 .953-.203c.308-.084.607-.18.899-.289zm6.265-3.883V418h-1.453v-8.453h1.453zm2.836 0v1.172h-7.07v-1.172h7.07zm6.282 7.008v-4.352c0-.333-.068-.622-.204-.867a1.327 1.327 0 0 0-.593-.578c-.266-.136-.594-.203-.985-.203-.364 0-.685.062-.961.187-.27.125-.484.289-.64.492a1.082 1.082 0 0 0-.227.657h-1.445c0-.302.078-.602.234-.899a2.61 2.61 0 0 1 .672-.804 3.362 3.362 0 0 1 1.063-.579c.416-.145.88-.218 1.39-.218.615 0 1.157.104 1.625.312a2.44 2.44 0 0 1 1.11.945c.27.417.406.941.406 1.571v3.937c0 .282.023.581.07.899.052.317.128.591.227.82V418h-1.508a2.715 2.715 0 0 1-.172-.664 5.306 5.306 0 0 1-.062-.781zm.25-3.68.015 1.016h-1.461c-.411 0-.778.033-1.101.101a2.54 2.54 0 0 0-.813.289 1.38 1.38 0 0 0-.5.492c-.114.193-.172.42-.172.68 0 .266.06.508.18.727.12.218.299.393.539.523.245.125.544.188.898.188.443 0 .834-.094 1.172-.282.339-.187.607-.416.805-.687.203-.271.313-.534.328-.789l.617.695c-.036.219-.135.461-.296.727a3.506 3.506 0 0 1-1.602 1.367 3.11 3.11 0 0 1-1.234.234c-.573 0-1.076-.112-1.508-.336a2.574 2.574 0 0 1-1-.898 2.374 2.374 0 0 1-.352-1.274c0-.453.089-.851.266-1.195.177-.349.432-.638.765-.867a3.637 3.637 0 0 1 1.204-.531 6.33 6.33 0 0 1 1.57-.18h1.68z" fill="#151317"/></g><rect x="486.5" y="432.5" width="467" height="47" rx="7.5" fill="#F8F8F8"/><path d="M506.033 461.137c-.515 0-.982-.087-1.401-.26a3.17 3.17 0 0 1-1.073-.745 3.307 3.307 0 0 1-.684-1.135 4.147 4.147 0 0 1-.239-1.435v-.288c0-.601.089-1.137.266-1.606.178-.474.42-.875.725-1.203a3.097 3.097 0 0 1 1.039-.745 2.975 2.975 0 0 1 1.203-.253c.529 0 .985.091 1.367.273.388.183.704.438.951.766.246.323.428.706.546 1.148.119.438.178.916.178 1.436v.567h-5.523v-1.032h4.258v-.096a3.133 3.133 0 0 0-.205-.957 1.719 1.719 0 0 0-.546-.765c-.251-.201-.593-.301-1.026-.301a1.723 1.723 0 0 0-1.415.718 2.67 2.67 0 0 0-.403.868 4.387 4.387 0 0 0-.144 1.182v.288c0 .35.048.681.144.991.1.305.244.574.43.806.192.233.422.415.691.547.273.132.583.198.93.198.446 0 .824-.091 1.134-.273.31-.182.581-.426.814-.731l.765.608a3.486 3.486 0 0 1-.608.69 2.904 2.904 0 0 1-.909.534c-.356.136-.777.205-1.265.205zm5.209-7.533 1.62 2.693 1.641-2.693h1.483l-2.42 3.65 2.496 3.746h-1.463l-1.709-2.775-1.709 2.775h-1.47l2.488-3.746-2.413-3.65h1.456zm10.452 6.131v-3.807c0-.292-.059-.545-.177-.759a1.168 1.168 0 0 0-.52-.506c-.232-.118-.519-.178-.861-.178-.319 0-.6.055-.841.164-.237.11-.424.253-.561.431a.945.945 0 0 0-.198.574h-1.265c0-.264.069-.526.206-.786a2.29 2.29 0 0 1 .587-.704c.26-.214.57-.383.93-.506.365-.127.77-.191 1.217-.191.538 0 1.012.091 1.422.273.415.183.738.458.971.827.236.365.355.823.355 1.374v3.446c0 .246.02.508.062.786.045.278.111.517.198.718V461h-1.32a2.388 2.388 0 0 1-.15-.581 4.754 4.754 0 0 1-.055-.684zm.219-3.219.014.888h-1.279c-.36 0-.681.03-.963.089-.283.055-.52.139-.711.253a1.2 1.2 0 0 0-.438.431c-.1.168-.15.367-.15.594 0 .233.052.445.157.636.105.192.262.344.472.458.214.11.476.164.786.164.387 0 .729-.082 1.025-.246.296-.164.531-.364.704-.601.178-.237.274-.467.287-.691l.54.609a1.818 1.818 0 0 1-.259.635 3.06 3.06 0 0 1-1.402 1.197 2.73 2.73 0 0 1-1.08.205c-.501 0-.941-.098-1.319-.294a2.257 2.257 0 0 1-.875-.786 2.083 2.083 0 0 1-.308-1.115c0-.396.078-.745.233-1.046.155-.305.378-.558.67-.758a3.18 3.18 0 0 1 1.052-.465c.41-.105.869-.157 1.374-.157h1.47zm4.293-1.443V461h-1.271v-7.396h1.203l.068 1.469zm-.26 1.948-.588-.02c.005-.506.071-.973.199-1.401.127-.433.316-.809.567-1.128.251-.319.563-.565.937-.739.373-.177.806-.266 1.298-.266.347 0 .666.05.957.15.292.096.545.249.759.458.214.21.381.479.499.807.119.328.178.724.178 1.189V461h-1.265v-4.867c0-.388-.066-.697-.198-.93a1.138 1.138 0 0 0-.547-.506 1.98 1.98 0 0 0-.834-.164c-.373 0-.686.066-.936.198a1.596 1.596 0 0 0-.602.547c-.15.233-.26.499-.328.8a4.46 4.46 0 0 0-.096.943zm4.792-.697-.847.26c.004-.406.07-.795.198-1.169.132-.374.321-.706.567-.998.251-.292.559-.522.923-.69.365-.174.782-.26 1.251-.26.397 0 .747.052 1.053.157.31.105.569.267.779.485.214.215.376.49.485.828.11.337.165.738.165 1.203V461h-1.272v-4.874c0-.415-.066-.736-.198-.964a1.035 1.035 0 0 0-.547-.485 2.18 2.18 0 0 0-.834-.144c-.278 0-.524.048-.738.144a1.51 1.51 0 0 0-.54.396 1.714 1.714 0 0 0-.335.568c-.073.214-.11.442-.11.683zm7.752-1.299v8.819h-1.271v-10.24h1.162l.109 1.421zm4.984 2.215v.144c0 .538-.064 1.037-.192 1.497a3.662 3.662 0 0 1-.56 1.189c-.242.338-.54.6-.896.786a2.586 2.586 0 0 1-1.223.281c-.47 0-.885-.078-1.245-.233a2.458 2.458 0 0 1-.916-.676 3.47 3.47 0 0 1-.601-1.067 6.186 6.186 0 0 1-.301-1.401v-.766a6.417 6.417 0 0 1 .308-1.47c.15-.433.348-.802.594-1.107.251-.31.554-.545.91-.704a2.904 2.904 0 0 1 1.23-.246c.465 0 .877.091 1.237.273a2.5 2.5 0 0 1 .91.766c.246.333.43.731.553 1.196.128.46.192.973.192 1.538zm-1.272.144v-.144c0-.369-.039-.715-.116-1.039a2.636 2.636 0 0 0-.362-.861 1.724 1.724 0 0 0-.616-.588 1.746 1.746 0 0 0-.895-.219 1.98 1.98 0 0 0-.834.164c-.233.11-.431.258-.595.445a2.359 2.359 0 0 0-.403.629c-.1.232-.176.473-.226.724v1.771c.091.319.219.619.383.902.164.278.383.504.656.677.274.168.618.253 1.033.253.341 0 .635-.071.881-.212.251-.146.456-.344.616-.595.164-.251.284-.538.362-.861.077-.328.116-.677.116-1.046zm4.259-6.884V461h-1.272v-10.5h1.272zm5.1 10.637c-.515 0-.983-.087-1.402-.26a3.179 3.179 0 0 1-1.073-.745 3.323 3.323 0 0 1-.684-1.135 4.17 4.17 0 0 1-.239-1.435v-.288c0-.601.089-1.137.267-1.606.177-.474.419-.875.724-1.203a3.107 3.107 0 0 1 1.039-.745 2.982 2.982 0 0 1 1.203-.253c.529 0 .985.091 1.368.273.387.183.704.438.95.766.246.323.428.706.547 1.148.118.438.177.916.177 1.436v.567h-5.523v-1.032h4.259v-.096a3.163 3.163 0 0 0-.205-.957 1.713 1.713 0 0 0-.547-.765c-.251-.201-.593-.301-1.026-.301a1.716 1.716 0 0 0-1.415.718 2.692 2.692 0 0 0-.403.868 4.39 4.39 0 0 0-.143 1.182v.288c0 .35.047.681.143.991.1.305.244.574.431.806.191.233.421.415.69.547.274.132.584.198.93.198.447 0 .825-.091 1.135-.273a2.8 2.8 0 0 0 .813-.731l.766.608c-.16.242-.363.472-.609.69a2.904 2.904 0 0 1-.909.534c-.355.136-.777.205-1.264.205zm15.257-3.575a6.12 6.12 0 0 1-.191 1.264 4.12 4.12 0 0 1-.492 1.155 2.577 2.577 0 0 1-.855.848c-.346.21-.765.315-1.258.315-.314 0-.59-.055-.827-.165a1.506 1.506 0 0 1-.574-.485 2 2 0 0 1-.308-.759 3.575 3.575 0 0 1-.027-.991l.349-3.787h1.005l-.349 3.787c-.027.333-.02.604.021.814.045.209.113.371.205.485a.72.72 0 0 0 .307.226c.119.041.233.061.342.061a1.3 1.3 0 0 0 .731-.212c.215-.146.395-.344.541-.595a3.28 3.28 0 0 0 .348-.881c.082-.338.132-.698.151-1.08a8.87 8.87 0 0 0-.096-1.874 5.16 5.16 0 0 0-.472-1.517 3.516 3.516 0 0 0-.861-1.121 3.635 3.635 0 0 0-1.272-.697c-.492-.16-1.055-.24-1.688-.24-.574 0-1.105.089-1.593.267a4.2 4.2 0 0 0-1.306.752 4.85 4.85 0 0 0-.991 1.182c-.273.461-.49.98-.649 1.559a8.492 8.492 0 0 0-.274 1.859 8.332 8.332 0 0 0 .11 1.887c.105.57.273 1.078.506 1.525.237.451.535.831.895 1.141.36.315.777.552 1.251.711a4.83 4.83 0 0 0 1.586.246c.401 0 .807-.048 1.217-.143a3.675 3.675 0 0 0 1.039-.39l.26.779c-.319.205-.718.358-1.197.458a6.469 6.469 0 0 1-1.346.151 5.994 5.994 0 0 1-1.901-.287 4.626 4.626 0 0 1-1.517-.828 4.602 4.602 0 0 1-1.094-1.319 6.037 6.037 0 0 1-.643-1.764 8.934 8.934 0 0 1-.157-2.167 8.967 8.967 0 0 1 .335-2.112 7.25 7.25 0 0 1 .8-1.798c.337-.537.738-1 1.203-1.387a5.18 5.18 0 0 1 1.579-.903 5.676 5.676 0 0 1 1.914-.314c.702 0 1.338.095 1.907.287a4.54 4.54 0 0 1 1.497.827c.433.36.791.8 1.074 1.319.282.52.487 1.108.615 1.764.132.656.182 1.372.15 2.147zm-7.02.581a3.797 3.797 0 0 0 0 .854c.032.251.093.463.184.636.092.173.21.305.356.396a1.04 1.04 0 0 0 .943.034c.146-.068.29-.173.431-.314.141-.141.273-.326.396-.554.123-.228.226-.501.308-.82l.451.492a4.045 4.045 0 0 1-.41.985 3.073 3.073 0 0 1-.554.71 2.282 2.282 0 0 1-.656.438 1.78 1.78 0 0 1-.697.144c-.333 0-.625-.071-.875-.212a1.674 1.674 0 0 1-.609-.616 2.805 2.805 0 0 1-.328-.943 4.965 4.965 0 0 1-.027-1.23 6.15 6.15 0 0 1 .253-1.327c.127-.405.285-.767.472-1.087.191-.319.405-.59.642-.813.242-.223.497-.392.766-.506.269-.118.544-.178.827-.178.492 0 .879.073 1.162.219.283.141.551.31.807.506l-.581.677a2.186 2.186 0 0 0-.52-.356 1.653 1.653 0 0 0-.759-.164c-.25 0-.485.064-.704.192a1.907 1.907 0 0 0-.595.574 3.6 3.6 0 0 0-.437.95 6.17 6.17 0 0 0-.246 1.313zm9.953-3.07V461h-1.272v-7.396h1.204l.068 1.469zm-.26 1.948-.588-.02c.005-.506.071-.973.199-1.401.127-.433.316-.809.567-1.128.251-.319.563-.565.936-.739.374-.177.807-.266 1.299-.266.347 0 .666.05.957.15.292.096.545.249.759.458.214.21.381.479.499.807.119.328.178.724.178 1.189V461h-1.265v-4.867c0-.388-.066-.697-.198-.93a1.138 1.138 0 0 0-.547-.506 1.98 1.98 0 0 0-.834-.164c-.374 0-.686.066-.936.198a1.588 1.588 0 0 0-.602.547c-.15.233-.26.499-.328.8a4.46 4.46 0 0 0-.096.943zm4.792-.697-.847.26c.004-.406.07-.795.198-1.169.132-.374.321-.706.567-.998.251-.292.558-.522.923-.69.365-.174.782-.26 1.251-.26.396 0 .747.052 1.053.157.31.105.569.267.779.485.214.215.376.49.485.828.11.337.164.738.164 1.203V461h-1.271v-4.874c0-.415-.066-.736-.198-.964a1.035 1.035 0 0 0-.547-.485 2.184 2.184 0 0 0-.834-.144c-.278 0-.524.048-.738.144a1.51 1.51 0 0 0-.54.396 1.714 1.714 0 0 0-.335.568c-.073.214-.11.442-.11.683zm10.849 3.411v-3.807c0-.292-.059-.545-.178-.759a1.166 1.166 0 0 0-.519-.506c-.233-.118-.52-.178-.862-.178-.319 0-.599.055-.841.164-.237.11-.423.253-.56.431a.945.945 0 0 0-.198.574h-1.265c0-.264.068-.526.205-.786.137-.26.333-.494.588-.704.26-.214.57-.383.93-.506.364-.127.77-.191 1.216-.191.538 0 1.012.091 1.422.273.415.183.739.458.971.827.237.365.355.823.355 1.374v3.446c0 .246.021.508.062.786.046.278.112.517.198.718V461h-1.319a2.343 2.343 0 0 1-.15-.581 4.615 4.615 0 0 1-.055-.684zm.219-3.219.013.888h-1.278c-.36 0-.681.03-.964.089a2.22 2.22 0 0 0-.711.253 1.205 1.205 0 0 0-.437.431 1.133 1.133 0 0 0-.151.594c0 .233.053.445.157.636.105.192.263.344.472.458.214.11.476.164.786.164.388 0 .729-.082 1.026-.246.296-.164.531-.364.704-.601.178-.237.273-.467.287-.691l.54.609a1.842 1.842 0 0 1-.26.635 3.09 3.09 0 0 1-1.401 1.197 2.73 2.73 0 0 1-1.08.205c-.502 0-.941-.098-1.32-.294a2.264 2.264 0 0 1-.875-.786 2.082 2.082 0 0 1-.307-1.115c0-.396.077-.745.232-1.046.155-.305.378-.558.67-.758.292-.205.643-.36 1.053-.465.41-.105.868-.157 1.374-.157h1.47zm4.409-2.912V461h-1.272v-7.396h1.272zm-1.367-1.962c0-.205.061-.379.184-.52.128-.141.315-.212.561-.212.241 0 .426.071.553.212a.73.73 0 0 1 .199.52.71.71 0 0 1-.199.505c-.127.137-.312.206-.553.206-.246 0-.433-.069-.561-.206a.742.742 0 0 1-.184-.505zm4.771-1.142V461h-1.271v-10.5h1.271zm2.051 9.83c0-.214.066-.394.198-.54.137-.15.333-.226.588-.226.255 0 .449.076.581.226a.759.759 0 0 1 .205.54c0 .21-.068.387-.205.533-.132.146-.326.219-.581.219-.255 0-.451-.073-.588-.219a.765.765 0 0 1-.198-.533zm4.935-5.564V461h-1.264v-7.396h1.23l.034 1.162zm2.311-1.204-.007 1.176a1.852 1.852 0 0 0-.301-.041 3.245 3.245 0 0 0-.314-.013 2.04 2.04 0 0 0-.773.136 1.602 1.602 0 0 0-.567.383c-.155.164-.278.36-.369.588a2.79 2.79 0 0 0-.171.738l-.355.205c0-.446.043-.866.129-1.257.092-.392.231-.739.417-1.039.187-.306.424-.543.711-.711.292-.174.638-.26 1.039-.26.092 0 .196.011.315.034.118.018.2.039.246.061zm5.694 5.729v-5.687h1.272V461h-1.21l-.062-1.709zm.24-1.559.526-.013c0 .492-.053.948-.157 1.367a2.942 2.942 0 0 1-.493 1.08 2.323 2.323 0 0 1-.895.718c-.369.168-.818.253-1.347.253-.36 0-.69-.053-.991-.158a1.977 1.977 0 0 1-.766-.485 2.217 2.217 0 0 1-.499-.854c-.113-.351-.17-.773-.17-1.265v-4.771h1.264v4.785c0 .332.037.608.11.827.077.214.18.385.307.513.132.123.278.209.438.259.164.05.332.075.506.075.537 0 .963-.102 1.278-.307.314-.21.54-.49.677-.841.141-.355.212-.75.212-1.183z" fill="#808185"/><rect x="486.5" y="432.5" width="467" height="47" rx="7.5" stroke="#FF6161"/><path d="M492.299 489.221v.449c0 .534-.067 1.012-.2 1.435a3.092 3.092 0 0 1-.577 1.08c-.25.296-.551.522-.903.678a2.82 2.82 0 0 1-1.172.235c-.42 0-.805-.078-1.157-.235a2.6 2.6 0 0 1-.908-.678 3.165 3.165 0 0 1-.591-1.08 4.554 4.554 0 0 1-.21-1.435v-.449c0-.534.068-1.011.205-1.431a3.16 3.16 0 0 1 .591-1.079c.254-.3.555-.527.903-.684a2.826 2.826 0 0 1 1.158-.234c.432 0 .823.078 1.171.234.352.157.653.384.904.684.254.296.447.656.581 1.079.136.42.205.897.205 1.431zm-.933.449v-.459c0-.423-.044-.798-.132-1.123a2.31 2.31 0 0 0-.376-.82 1.615 1.615 0 0 0-.61-.503 1.852 1.852 0 0 0-.81-.171c-.293 0-.559.057-.796.171a1.674 1.674 0 0 0-.606.503 2.466 2.466 0 0 0-.386.82c-.091.325-.136.7-.136 1.123v.459c0 .426.045.804.136 1.133.092.325.222.6.391.825.173.221.376.389.61.503.238.114.503.171.796.171.306 0 .578-.057.816-.171.237-.114.438-.282.6-.503.166-.225.292-.5.376-.825a4.55 4.55 0 0 0 .127-1.133zm2.285-1.953h.904v4.541h1.933v-4.541h.908v4.541h1.929v-4.541h.904V493h-6.578v-5.283zm8.995 3.852 2.436-3.852h.908V493h-.908v-3.853L502.646 493h-.899v-5.283h.899v3.852zm8.183-6.152h.742c0 .319-.049.573-.146.762a1.066 1.066 0 0 1-.401.429 1.994 1.994 0 0 1-.566.23c-.208.052-.425.102-.649.151-.28.059-.541.152-.782.279a1.824 1.824 0 0 0-.615.527c-.169.228-.294.524-.376.889-.078.364-.099.815-.063 1.352v.449h-.743v-.449c0-.602.057-1.128.171-1.577a3.64 3.64 0 0 1 .494-1.138c.211-.309.462-.555.751-.737.293-.182.616-.308.967-.376.254-.049.472-.101.655-.156a.994.994 0 0 0 .415-.235.542.542 0 0 0 .146-.4zm-1.069 2.603c.345 0 .652.06.923.18.27.121.499.288.688.503.189.215.332.469.43.762.101.29.151.605.151.947v.108c0 .367-.054.709-.161 1.025a2.366 2.366 0 0 1-.464.82 2.106 2.106 0 0 1-.742.542c-.29.13-.62.196-.991.196s-.703-.066-.996-.196a2.175 2.175 0 0 1-.743-.542 2.423 2.423 0 0 1-.468-.82 3.262 3.262 0 0 1-.157-1.025v-.108c0-.081.015-.161.044-.239.03-.078.066-.158.108-.239.045-.082.086-.168.122-.259a3.14 3.14 0 0 1 .493-.816c.212-.25.464-.452.757-.605a2.124 2.124 0 0 1 1.006-.234zm-.176.737c-.332 0-.605.076-.82.229-.212.153-.37.357-.474.611-.104.25-.156.522-.156.815v.108c0 .247.029.481.088.703.058.221.146.418.263.59.121.17.272.303.454.401.186.098.404.146.655.146.25 0 .467-.048.649-.146.182-.098.332-.231.449-.401.118-.172.205-.369.264-.59.059-.222.088-.456.088-.703v-.108c0-.221-.029-.431-.088-.63a1.572 1.572 0 0 0-.268-.527 1.214 1.214 0 0 0-.455-.361 1.422 1.422 0 0 0-.649-.137zm4.287-1.04V493h-.903v-5.283h.903zm3.467 0-2.505 3.027h-1.265l-.136-.791h1.035l1.772-2.236h1.099zm-.972 5.283-1.943-2.393.581-.654 2.51 3.047h-1.148zm5.049-.903v-2.72a1.1 1.1 0 0 0-.127-.542.826.826 0 0 0-.371-.361 1.34 1.34 0 0 0-.615-.127c-.228 0-.428.039-.601.117a1.048 1.048 0 0 0-.4.307.672.672 0 0 0-.142.411h-.903c0-.189.049-.376.146-.562.098-.185.238-.353.42-.503.186-.153.407-.273.664-.361.261-.091.55-.137.869-.137.385 0 .723.065 1.016.195.296.131.527.328.693.591.17.261.254.588.254.982v2.461c0 .175.015.363.044.561.033.199.08.37.142.513V493h-.942a1.668 1.668 0 0 1-.108-.415 3.36 3.36 0 0 1-.039-.488zm.156-2.3.01.635h-.913c-.257 0-.487.021-.689.063a1.555 1.555 0 0 0-.507.181.862.862 0 0 0-.313.307.823.823 0 0 0-.107.425c0 .166.037.318.112.454a.812.812 0 0 0 .337.327c.153.079.34.118.561.118a1.525 1.525 0 0 0 1.236-.606.923.923 0 0 0 .205-.493l.386.435a1.321 1.321 0 0 1-.186.454 2.178 2.178 0 0 1-1.001.854 1.934 1.934 0 0 1-.771.147c-.358 0-.673-.07-.943-.21a1.61 1.61 0 0 1-.625-.562 1.489 1.489 0 0 1-.219-.796c0-.283.055-.532.166-.747.11-.218.27-.399.478-.542.208-.146.459-.257.752-.332a3.96 3.96 0 0 1 .981-.112h1.05z" fill="#FF6161"/><g clip-path="url(#d)"><path d="M496.008 516.625V528h-1.5v-10.141h-5.61V528h-1.507v-11.375h8.617zm7.5 9.93v-4.352a1.77 1.77 0 0 0-.203-.867 1.33 1.33 0 0 0-.594-.578c-.266-.136-.594-.203-.984-.203-.365 0-.685.062-.961.187a1.672 1.672 0 0 0-.641.492 1.082 1.082 0 0 0-.227.657h-1.445c0-.302.078-.602.235-.899a2.62 2.62 0 0 1 .671-.804 3.362 3.362 0 0 1 1.063-.579 4.21 4.21 0 0 1 1.39-.218c.615 0 1.157.104 1.626.312.473.208.843.524 1.109.945.271.417.406.941.406 1.571v3.937c0 .282.024.581.07.899.053.317.128.591.227.82V528h-1.508a2.715 2.715 0 0 1-.172-.664 5.446 5.446 0 0 1-.062-.781zm.25-3.68.015 1.016h-1.461c-.411 0-.778.033-1.101.101a2.54 2.54 0 0 0-.813.289c-.218.13-.385.295-.5.492-.114.193-.171.42-.171.68 0 .266.059.508.179.727.12.218.3.393.539.523.245.125.545.188.899.188.442 0 .833-.094 1.172-.282.338-.187.606-.416.804-.687.203-.271.313-.534.328-.789l.618.695a2.122 2.122 0 0 1-.297.727 3.482 3.482 0 0 1-.649.765 3.49 3.49 0 0 1-.953.602 3.107 3.107 0 0 1-1.234.234c-.573 0-1.076-.112-1.508-.336a2.58 2.58 0 0 1-1-.898 2.383 2.383 0 0 1-.352-1.274c0-.453.089-.851.266-1.195a2.3 2.3 0 0 1 .766-.867 3.623 3.623 0 0 1 1.203-.531c.469-.12.992-.18 1.57-.18h1.68zm4.914-1.703v10.078h-1.453v-11.703h1.328l.125 1.625zm5.695 2.531v.164c0 .615-.073 1.185-.219 1.711a4.2 4.2 0 0 1-.64 1.36 2.917 2.917 0 0 1-1.024.898c-.406.213-.872.32-1.398.32-.537 0-1.01-.088-1.422-.265a2.809 2.809 0 0 1-1.047-.774 3.956 3.956 0 0 1-.687-1.219 7.001 7.001 0 0 1-.344-1.601v-.875c.062-.625.18-1.185.352-1.68.171-.495.398-.916.679-1.265a2.786 2.786 0 0 1 1.039-.805c.406-.188.875-.281 1.406-.281.532 0 1.003.104 1.415.312.411.203.757.495 1.039.875.281.38.492.836.632 1.367.146.526.219 1.112.219 1.758zm-1.453.164v-.164c0-.422-.044-.818-.133-1.187a2.98 2.98 0 0 0-.414-.985 1.974 1.974 0 0 0-.703-.672c-.286-.166-.628-.25-1.023-.25a2.25 2.25 0 0 0-.953.188 2.047 2.047 0 0 0-.68.508 2.692 2.692 0 0 0-.461.718 4.09 4.09 0 0 0-.258.829v2.023c.104.365.25.708.438 1.031.187.318.437.576.75.774.312.192.705.289 1.179.289.391 0 .727-.081 1.008-.242.287-.167.521-.394.703-.68.188-.287.326-.615.414-.985.089-.374.133-.773.133-1.195zm2.914 0v-.179c0-.61.089-1.175.266-1.696.177-.526.432-.982.765-1.367a3.41 3.41 0 0 1 1.211-.906 3.758 3.758 0 0 1 1.594-.328c.594 0 1.128.109 1.602.328.479.213.885.515 1.218.906.339.385.597.841.774 1.367a5.24 5.24 0 0 1 .265 1.696v.179c0 .61-.088 1.175-.265 1.695a4.054 4.054 0 0 1-.774 1.368 3.548 3.548 0 0 1-1.211.906c-.468.213-1 .32-1.593.32a3.867 3.867 0 0 1-1.602-.32 3.637 3.637 0 0 1-1.219-.906 4.139 4.139 0 0 1-.765-1.368 5.229 5.229 0 0 1-.266-1.695zm1.445-.179v.179c0 .422.05.821.149 1.195.099.37.247.698.445.985.203.286.456.513.758.68a2.21 2.21 0 0 0 1.055.242c.396 0 .742-.081 1.039-.242.302-.167.552-.394.75-.68.198-.287.346-.615.445-.985.104-.374.156-.773.156-1.195v-.179c0-.417-.052-.81-.156-1.18a3.036 3.036 0 0 0-.453-.992 2.156 2.156 0 0 0-.75-.688c-.297-.167-.646-.25-1.047-.25-.396 0-.745.083-1.047.25a2.247 2.247 0 0 0-.75.688 3.13 3.13 0 0 0-.445.992c-.099.37-.149.763-.149 1.18zm13.586-4.141v1.195h-4.086v-1.195h4.086zm1.274 0V528h-1.445v-8.453h1.445zm-5.711 0h1.453l-.219 4.078c-.036.63-.096 1.187-.179 1.672a5.718 5.718 0 0 1-.329 1.234 2.574 2.574 0 0 1-.515.844 1.891 1.891 0 0 1-.735.477 3.031 3.031 0 0 1-.992.148h-.453v-1.273l.313-.024a1.33 1.33 0 0 0 .57-.156c.161-.089.297-.219.406-.391.11-.177.198-.403.266-.679.073-.276.127-.605.164-.985.042-.38.073-.823.094-1.328l.156-3.617zm9.226 2.906h2.54c.682 0 1.257.12 1.726.359.469.235.823.56 1.063.977.244.412.367.88.367 1.406 0 .391-.068.758-.203 1.102a2.494 2.494 0 0 1-.61.891 2.81 2.81 0 0 1-.992.601 3.972 3.972 0 0 1-1.351.211h-3.594v-8.453h1.445v7.265h2.149c.416 0 .75-.075 1-.226.25-.151.429-.346.539-.586a1.795 1.795 0 0 0 0-1.5 1.403 1.403 0 0 0-.539-.609c-.25-.167-.584-.25-1-.25h-2.54v-1.188z" fill="#151317"/></g><rect x="486" y="542" width="468" height="48" rx="8" fill="#F8F8F8"/><path d="m502.882 566.16 1.374-1.887-2.065-.615.322-1.025 2.064.759-.061-2.352h1.039l-.069 2.393 2.037-.759.315 1.046-2.099.622 1.347 1.852-.848.636-1.264-1.969-1.238 1.921-.854-.622zm6.029 0 1.374-1.887-2.064-.615.321-1.025 2.064.759-.061-2.352h1.039l-.068 2.393 2.037-.759.314 1.046-2.098.622 1.346 1.852-.847.636-1.265-1.969-1.237 1.921-.855-.622zm6.029 0 1.374-1.887-2.064-.615.321-1.025 2.065.759-.062-2.352h1.039l-.068 2.393 2.037-.759.314 1.046-2.098.622 1.347 1.852-.848.636-1.265-1.969-1.237 1.921-.855-.622zm6.03 0 1.374-1.887-2.065-.615.322-1.025 2.064.759-.061-2.352h1.039l-.069 2.393 2.037-.759.315 1.046-2.099.622 1.347 1.852-.848.636-1.264-1.969-1.238 1.921-.854-.622zm6.029 0 1.374-1.887-2.064-.615.321-1.025 2.064.759-.061-2.352h1.039l-.068 2.393 2.037-.759.314 1.046-2.099.622 1.347 1.852-.848.636-1.264-1.969-1.237 1.921-.855-.622zm6.029 0 1.374-1.887-2.064-.615.321-1.025 2.065.759-.062-2.352h1.039l-.068 2.393 2.037-.759.314 1.046-2.098.622 1.346 1.852-.847.636-1.265-1.969-1.237 1.921-.855-.622z" fill="#808185"/><g clip-path="url(#e)" stroke="#808185" stroke-width="1.5" stroke-linecap="round"><path d="M932.73 559.073A11.04 11.04 0 0 1 934 559c4.664 0 8.4 2.903 10 7a11.637 11.637 0 0 1-1.555 2.788m-13.925-8.269c-2.041 1.245-3.619 3.174-4.52 5.481 1.6 4.097 5.336 7 10 7 2.038 0 3.898-.554 5.481-1.52m-7.602-7.601a3 3 0 1 0 4.242 4.242" stroke-linejoin="round"/><path d="m926 558 16 16"/></g><g clip-path="url(#f)"><path d="M496.008 610.625V622h-1.5v-10.141h-5.61V622h-1.507v-11.375h8.617zm2.133 7.242v-.179c0-.61.088-1.175.265-1.696.177-.526.433-.982.766-1.367a3.401 3.401 0 0 1 1.211-.906 3.755 3.755 0 0 1 1.594-.328c.593 0 1.127.109 1.601.328.479.213.886.515 1.219.906.338.385.596.841.773 1.367a5.24 5.24 0 0 1 .266 1.696v.179c0 .61-.089 1.175-.266 1.695a4.069 4.069 0 0 1-.773 1.368 3.548 3.548 0 0 1-1.211.906c-.469.213-1 .32-1.594.32a3.863 3.863 0 0 1-1.601-.32 3.627 3.627 0 0 1-1.219-.906 4.14 4.14 0 0 1-.766-1.368 5.229 5.229 0 0 1-.265-1.695zm1.445-.179v.179c0 .422.049.821.148 1.195.099.37.248.698.446.985.203.286.455.513.758.68.302.161.653.242 1.054.242.396 0 .742-.081 1.039-.242.302-.167.552-.394.75-.68.198-.287.347-.615.446-.985.104-.374.156-.773.156-1.195v-.179c0-.417-.052-.81-.156-1.18a3.017 3.017 0 0 0-.454-.992 2.139 2.139 0 0 0-.75-.688c-.296-.167-.645-.25-1.046-.25-.396 0-.745.083-1.047.25a2.247 2.247 0 0 0-.75.688 3.131 3.131 0 0 0-.446.992c-.099.37-.148.763-.148 1.18zm9.023-4.141h1.446l-.125 3.164c-.032.802-.123 1.495-.274 2.078a6.12 6.12 0 0 1-.578 1.492 4.441 4.441 0 0 1-.789 1.024 5.146 5.146 0 0 1-.891.695h-.718l.039-1.18.297-.008c.172-.203.338-.411.5-.624.161-.219.31-.477.445-.774.135-.302.247-.669.336-1.102.094-.437.154-.971.18-1.601l.132-3.164zm.36 0h5.086V622h-1.446v-7.117h-3.64v-1.336zm-2.617 7.265h8.789v3.68h-1.446V622h-5.898v2.492h-1.453l.008-3.68zm13.679-7.265V622h-1.453v-8.453h1.453zm2.836 0v1.172h-7.07v-1.172h7.07zm5.391 4.734h-2.774l-.015-1.156h2.265c.448 0 .821-.044 1.118-.133.302-.088.528-.221.679-.398a.977.977 0 0 0 .227-.656 1.027 1.027 0 0 0-.516-.915 1.894 1.894 0 0 0-.64-.226 4.389 4.389 0 0 0-.883-.078h-1.852V622h-1.445v-8.453h3.297c.536 0 1.018.047 1.445.141.432.093.8.236 1.102.429.307.188.541.427.703.719a2.1 2.1 0 0 1 .242 1.031 1.74 1.74 0 0 1-.617 1.336 2.505 2.505 0 0 1-.75.438 3.91 3.91 0 0 1-1.024.211l-.562.429zm0 3.719h-3.297l.719-1.172h2.578c.401 0 .734-.049 1-.148.265-.104.463-.25.594-.438.135-.193.203-.422.203-.687 0-.266-.068-.493-.203-.68-.131-.193-.329-.339-.594-.437-.266-.105-.599-.157-1-.157h-2.196l.016-1.156h2.742l.524.437c.463.037.857.152 1.179.344.323.193.568.438.735.735.166.291.25.609.25.953 0 .396-.076.745-.227 1.047a1.992 1.992 0 0 1-.64.757 3.157 3.157 0 0 1-1.024.454 5.686 5.686 0 0 1-1.359.148zm8.695.156a4.155 4.155 0 0 1-1.601-.297 3.64 3.64 0 0 1-1.227-.851 3.78 3.78 0 0 1-.781-1.297 4.74 4.74 0 0 1-.274-1.641v-.328c0-.687.102-1.299.305-1.836.203-.541.479-1 .828-1.375a3.535 3.535 0 0 1 1.188-.851 3.403 3.403 0 0 1 1.375-.289c.604 0 1.125.104 1.562.312.443.208.805.5 1.086.875.281.37.49.807.625 1.313.135.5.203 1.047.203 1.64v.649h-6.312V617h4.867v-.109a3.594 3.594 0 0 0-.235-1.094 1.966 1.966 0 0 0-.624-.875c-.287-.229-.678-.344-1.172-.344a1.966 1.966 0 0 0-1.618.82 3.081 3.081 0 0 0-.46.993c-.11.39-.165.841-.165 1.351v.328c0 .401.055.779.165 1.133.114.349.278.656.492.922.218.266.481.474.789.625.312.151.666.227 1.062.227.511 0 .943-.105 1.297-.313.354-.208.664-.487.93-.836l.875.695a4.041 4.041 0 0 1-.695.789c-.282.25-.628.454-1.04.61-.406.156-.888.234-1.445.234zm6.422-6.984v10.078h-1.453v-11.703h1.328l.125 1.625zm5.695 2.531v.164c0 .615-.073 1.185-.218 1.711-.146.521-.36.974-.641 1.36a2.923 2.923 0 0 1-1.023.898c-.407.213-.873.32-1.399.32-.536 0-1.01-.088-1.422-.265a2.809 2.809 0 0 1-1.047-.774 3.956 3.956 0 0 1-.687-1.219 7.055 7.055 0 0 1-.344-1.601v-.875c.063-.625.18-1.185.352-1.68.171-.495.398-.916.679-1.265a2.786 2.786 0 0 1 1.039-.805c.407-.188.875-.281 1.407-.281.531 0 1.002.104 1.414.312.411.203.758.495 1.039.875a4 4 0 0 1 .633 1.367 6.61 6.61 0 0 1 .218 1.758zm-1.453.164v-.164c0-.422-.044-.818-.133-1.187a2.98 2.98 0 0 0-.414-.985 1.974 1.974 0 0 0-.703-.672c-.286-.166-.627-.25-1.023-.25a2.25 2.25 0 0 0-.953.188 2.047 2.047 0 0 0-.68.508 2.692 2.692 0 0 0-.461.718 4.09 4.09 0 0 0-.258.829v2.023c.104.365.25.708.438 1.031.187.318.437.576.75.774.312.192.705.289 1.179.289.391 0 .727-.081 1.008-.242.287-.167.521-.394.703-.68.188-.287.326-.615.414-.985.089-.374.133-.773.133-1.195zm4.68-4.32h1.445l-.125 3.164c-.031.802-.122 1.495-.273 2.078a6.12 6.12 0 0 1-.578 1.492 4.497 4.497 0 0 1-.789 1.024 5.222 5.222 0 0 1-.891.695h-.719l.039-1.18.297-.008c.172-.203.339-.411.5-.624.162-.219.31-.477.445-.774.136-.302.248-.669.336-1.102.094-.437.154-.971.18-1.601l.133-3.164zm.359 0h5.086V622h-1.445v-7.117h-3.641v-1.336zm-2.617 7.265h8.789v3.68h-1.445V622h-5.899v2.492h-1.453l.008-3.68zm11.953-1.101 3.899-6.164h1.453V622h-1.453v-6.164L561.992 622h-1.437v-8.453h1.437v6.164zm11.117-6.164V622h-1.453v-8.453h1.453zm2.836 0v1.172h-7.07v-1.172h7.07zm4.305 8.609a4.16 4.16 0 0 1-1.602-.297 3.636 3.636 0 0 1-1.226-.851 3.78 3.78 0 0 1-.781-1.297 4.74 4.74 0 0 1-.274-1.641v-.328c0-.687.102-1.299.305-1.836.203-.541.479-1 .828-1.375a3.535 3.535 0 0 1 1.188-.851 3.402 3.402 0 0 1 1.374-.289c.605 0 1.126.104 1.563.312.443.208.805.5 1.086.875.281.37.49.807.625 1.313.135.5.203 1.047.203 1.64v.649h-6.312V617h4.867v-.109a3.594 3.594 0 0 0-.235-1.094 1.96 1.96 0 0 0-.625-.875c-.286-.229-.677-.344-1.172-.344a1.962 1.962 0 0 0-1.617.82 3.082 3.082 0 0 0-.461.993c-.109.39-.164.841-.164 1.351v.328c0 .401.055.779.164 1.133.115.349.279.656.493.922.218.266.481.474.789.625.312.151.666.227 1.062.227.511 0 .943-.105 1.297-.313.354-.208.664-.487.93-.836l.875.695a4.048 4.048 0 0 1-.696.789c-.281.25-.627.454-1.039.61-.406.156-.888.234-1.445.234zm14.578-8.609v1.195h-4.273v-1.195h4.273zm-4.062 0V622h-1.446v-8.453h1.446zm5.343 0V622h-1.453v-8.453h1.453zm7.305 7.008v-4.352a1.77 1.77 0 0 0-.203-.867 1.325 1.325 0 0 0-.594-.578c-.265-.136-.594-.203-.984-.203-.365 0-.685.062-.961.187a1.68 1.68 0 0 0-.641.492 1.08 1.08 0 0 0-.226.657h-1.446c0-.302.079-.602.235-.899a2.61 2.61 0 0 1 .672-.804 3.356 3.356 0 0 1 1.062-.579c.417-.145.88-.218 1.391-.218.614 0 1.156.104 1.625.312.474.208.844.524 1.109.945.271.417.406.941.406 1.571v3.937c0 .282.024.581.071.899.052.317.127.591.226.82V622h-1.508a2.72 2.72 0 0 1-.171-.664 5.314 5.314 0 0 1-.063-.781zm.25-3.68.016 1.016h-1.461a5.38 5.38 0 0 0-1.102.101 2.526 2.526 0 0 0-.812.289c-.219.13-.386.295-.5.492-.115.193-.172.42-.172.68 0 .266.06.508.179.727.12.218.3.393.54.523.244.125.544.188.898.188.443 0 .833-.094 1.172-.282.338-.187.607-.416.805-.687.203-.271.312-.534.328-.789l.617.695a2.122 2.122 0 0 1-.297.727 3.512 3.512 0 0 1-1.602 1.367 3.107 3.107 0 0 1-1.234.234c-.573 0-1.075-.112-1.508-.336a2.58 2.58 0 0 1-1-.898 2.382 2.382 0 0 1-.351-1.274c0-.453.088-.851.265-1.195.177-.349.433-.638.766-.867a3.623 3.623 0 0 1 1.203-.531c.469-.12.992-.18 1.57-.18h1.68zm4.914-1.703v10.078h-1.453v-11.703h1.328l.125 1.625zm5.695 2.531v.164c0 .615-.072 1.185-.218 1.711-.146.521-.36.974-.641 1.36a2.923 2.923 0 0 1-1.023.898c-.407.213-.873.32-1.399.32-.536 0-1.01-.088-1.422-.265a2.809 2.809 0 0 1-1.047-.774 3.956 3.956 0 0 1-.687-1.219 7.055 7.055 0 0 1-.344-1.601v-.875c.063-.625.18-1.185.352-1.68.172-.495.398-.916.679-1.265a2.786 2.786 0 0 1 1.039-.805c.407-.188.876-.281 1.407-.281s1.002.104 1.414.312c.411.203.758.495 1.039.875a4 4 0 0 1 .633 1.367 6.57 6.57 0 0 1 .218 1.758zm-1.453.164v-.164c0-.422-.044-.818-.132-1.187a3.002 3.002 0 0 0-.415-.985 1.974 1.974 0 0 0-.703-.672c-.286-.166-.627-.25-1.023-.25-.365 0-.682.063-.953.188a2.057 2.057 0 0 0-.68.508 2.716 2.716 0 0 0-.461.718 4.22 4.22 0 0 0-.258.829v2.023c.104.365.25.708.438 1.031.187.318.437.576.75.774.312.192.706.289 1.179.289.391 0 .727-.081 1.008-.242.287-.167.521-.394.703-.68.188-.287.326-.615.415-.985a5.21 5.21 0 0 0 .132-1.195zm2.914 0v-.179c0-.61.089-1.175.266-1.696.177-.526.432-.982.766-1.367a3.401 3.401 0 0 1 1.211-.906 3.754 3.754 0 0 1 1.593-.328c.594 0 1.128.109 1.602.328.479.213.885.515 1.219.906.338.385.596.841.773 1.367a5.24 5.24 0 0 1 .266 1.696v.179c0 .61-.089 1.175-.266 1.695a4.069 4.069 0 0 1-.773 1.368 3.558 3.558 0 0 1-1.211.906c-.469.213-1 .32-1.594.32a3.867 3.867 0 0 1-1.602-.32 3.623 3.623 0 0 1-1.218-.906 4.123 4.123 0 0 1-.766-1.368 5.229 5.229 0 0 1-.266-1.695zm1.446-.179v.179c0 .422.049.821.148 1.195.099.37.248.698.445.985.204.286.456.513.758.68a2.21 2.21 0 0 0 1.055.242c.396 0 .742-.081 1.039-.242.302-.167.552-.394.75-.68.198-.287.346-.615.445-.985.104-.374.157-.773.157-1.195v-.179c0-.417-.053-.81-.157-1.18a3.036 3.036 0 0 0-.453-.992 2.156 2.156 0 0 0-.75-.688c-.297-.167-.646-.25-1.047-.25a2.13 2.13 0 0 0-1.047.25 2.266 2.266 0 0 0-.75.688 3.152 3.152 0 0 0-.445.992c-.099.37-.148.763-.148 1.18zm13.586-4.141v1.195h-4.086v-1.195h4.086zm1.273 0V622h-1.445v-8.453h1.445zm-5.711 0h1.453l-.219 4.078c-.036.63-.096 1.187-.179 1.672a5.72 5.72 0 0 1-.328 1.234 2.593 2.593 0 0 1-.516.844 1.895 1.895 0 0 1-.734.477 3.038 3.038 0 0 1-.993.148h-.453v-1.273l.313-.024a1.33 1.33 0 0 0 .57-.156c.162-.089.297-.219.406-.391.11-.177.198-.403.266-.679.073-.276.128-.605.164-.985.042-.38.073-.823.094-1.328l.156-3.617zm9.227 2.906h2.539c.682 0 1.258.12 1.726.359.469.235.823.56 1.063.977.245.412.367.88.367 1.406 0 .391-.068.758-.203 1.102a2.504 2.504 0 0 1-.609.891 2.824 2.824 0 0 1-.993.601c-.39.141-.841.211-1.351.211H634.5v-8.453h1.445v7.265h2.149c.416 0 .75-.075 1-.226.25-.151.429-.346.539-.586a1.795 1.795 0 0 0 0-1.5 1.403 1.403 0 0 0-.539-.609c-.25-.167-.584-.25-1-.25h-2.539v-1.188z" fill="#151317"/></g><rect x="486" y="636" width="468" height="48" rx="8" fill="#F8F8F8"/><path d="m502.882 660.16 1.374-1.887-2.065-.615.322-1.025 2.064.759-.061-2.352h1.039l-.069 2.393 2.037-.759.315 1.046-2.099.622 1.347 1.852-.848.636-1.264-1.969-1.238 1.921-.854-.622zm6.029 0 1.374-1.887-2.064-.615.321-1.025 2.064.759-.061-2.352h1.039l-.068 2.393 2.037-.759.314 1.046-2.098.622 1.346 1.852-.847.636-1.265-1.969-1.237 1.921-.855-.622zm6.029 0 1.374-1.887-2.064-.615.321-1.025 2.065.759-.062-2.352h1.039l-.068 2.393 2.037-.759.314 1.046-2.098.622 1.347 1.852-.848.636-1.265-1.969-1.237 1.921-.855-.622zm6.03 0 1.374-1.887-2.065-.615.322-1.025 2.064.759-.061-2.352h1.039l-.069 2.393 2.037-.759.315 1.046-2.099.622 1.347 1.852-.848.636-1.264-1.969-1.238 1.921-.854-.622zm6.029 0 1.374-1.887-2.064-.615.321-1.025 2.064.759-.061-2.352h1.039l-.068 2.393 2.037-.759.314 1.046-2.099.622 1.347 1.852-.848.636-1.264-1.969-1.237 1.921-.855-.622zm6.029 0 1.374-1.887-2.064-.615.321-1.025 2.065.759-.062-2.352h1.039l-.068 2.393 2.037-.759.314 1.046-2.098.622 1.346 1.852-.847.636-1.265-1.969-1.237 1.921-.855-.622z" fill="#808185"/><g clip-path="url(#g)" stroke="#808185" stroke-width="1.5" stroke-linecap="round"><path d="M932.73 653.073A11.04 11.04 0 0 1 934 653c4.664 0 8.4 2.903 10 7a11.637 11.637 0 0 1-1.555 2.788m-13.925-8.269c-2.041 1.245-3.619 3.174-4.52 5.481 1.6 4.097 5.336 7 10 7 2.038 0 3.898-.554 5.481-1.52m-7.602-7.601a3 3 0 1 0 4.242 4.242" stroke-linejoin="round"/><path d="m926 652 16 16"/></g><rect x="486" y="708" width="468" height="48" rx="8" fill="#512689"/><path d="M640.805 727.539h-1.352v-.961h1.297c.573 0 1.036-.081 1.391-.242.354-.162.612-.385.773-.672.162-.286.242-.617.242-.992 0-.36-.088-.688-.265-.984-.177-.303-.451-.542-.821-.719-.369-.183-.846-.274-1.429-.274-.438 0-.834.084-1.188.25a2.072 2.072 0 0 0-.844.68 1.643 1.643 0 0 0-.312.992h-1.508c0-.484.102-.919.305-1.305.203-.39.482-.721.836-.992a3.841 3.841 0 0 1 1.226-.632 4.968 4.968 0 0 1 1.485-.219c.609 0 1.161.07 1.656.211.495.135.919.338 1.273.609.354.271.625.607.813 1.008.187.401.281.867.281 1.398 0 .391-.091.758-.273 1.102a2.791 2.791 0 0 1-.782.906 3.918 3.918 0 0 1-1.218.617 5.377 5.377 0 0 1-1.586.219zm-1.352-.664h1.352c.64 0 1.211.065 1.711.195.5.131.922.321 1.265.571.344.25.604.56.781.929.183.365.274.784.274 1.258 0 .531-.104 1.003-.313 1.414a2.934 2.934 0 0 1-.867 1.047c-.375.287-.82.503-1.336.649-.51.145-1.07.218-1.679.218a5.73 5.73 0 0 1-1.453-.187 4.223 4.223 0 0 1-1.29-.594 3.107 3.107 0 0 1-.929-1.031c-.229-.417-.344-.917-.344-1.5h1.508c0 .38.104.729.312 1.047.214.317.508.573.883.765.375.188.813.282 1.313.282.573 0 1.057-.089 1.453-.266.401-.182.705-.43.914-.742.213-.318.32-.675.32-1.071a2.19 2.19 0 0 0-.172-.906 1.54 1.54 0 0 0-.492-.641 2.093 2.093 0 0 0-.805-.367 4.405 4.405 0 0 0-1.109-.125h-1.297v-.945zm12.133 4.68v-4.352a1.77 1.77 0 0 0-.203-.867 1.325 1.325 0 0 0-.594-.578c-.266-.136-.594-.203-.984-.203-.365 0-.685.062-.961.187a1.672 1.672 0 0 0-.641.492 1.08 1.08 0 0 0-.226.657h-1.446c0-.302.078-.602.235-.899a2.61 2.61 0 0 1 .672-.804 3.356 3.356 0 0 1 1.062-.579c.417-.145.88-.218 1.391-.218.614 0 1.156.104 1.625.312.474.208.843.524 1.109.945.271.417.406.941.406 1.571v3.937c0 .282.024.581.071.899.052.317.127.591.226.82V733h-1.508a2.715 2.715 0 0 1-.172-.664 5.446 5.446 0 0 1-.062-.781zm.25-3.68.016 1.016h-1.461a5.38 5.38 0 0 0-1.102.101 2.526 2.526 0 0 0-.812.289c-.219.13-.386.295-.5.492-.115.193-.172.42-.172.68 0 .266.06.508.179.727.12.218.3.393.539.523.245.125.545.188.899.188.443 0 .833-.094 1.172-.282.338-.187.607-.416.804-.687.204-.271.313-.534.329-.789l.617.695a2.122 2.122 0 0 1-.297.727 3.482 3.482 0 0 1-.649.765 3.49 3.49 0 0 1-.953.602 3.107 3.107 0 0 1-1.234.234c-.573 0-1.076-.112-1.508-.336a2.58 2.58 0 0 1-1-.898 2.382 2.382 0 0 1-.351-1.274c0-.453.088-.851.265-1.195a2.3 2.3 0 0 1 .766-.867 3.623 3.623 0 0 1 1.203-.531c.469-.12.992-.18 1.57-.18h1.68zm4.914-1.703v10.078h-1.453v-11.703h1.328l.125 1.625zm5.695 2.531v.164c0 .615-.073 1.185-.218 1.711-.146.521-.36.974-.641 1.36a2.917 2.917 0 0 1-1.024.898c-.406.213-.872.32-1.398.32-.536 0-1.01-.088-1.422-.265a2.809 2.809 0 0 1-1.047-.774 3.956 3.956 0 0 1-.687-1.219 7.055 7.055 0 0 1-.344-1.601v-.875c.063-.625.18-1.185.352-1.68.172-.495.398-.916.679-1.265a2.786 2.786 0 0 1 1.039-.805c.407-.188.875-.281 1.407-.281.531 0 1.002.104 1.414.312.411.203.757.495 1.039.875a4 4 0 0 1 .633 1.367 6.61 6.61 0 0 1 .218 1.758zm-1.453.164v-.164c0-.422-.044-.818-.133-1.187a2.98 2.98 0 0 0-.414-.985 1.974 1.974 0 0 0-.703-.672c-.286-.166-.627-.25-1.023-.25a2.25 2.25 0 0 0-.953.188 2.047 2.047 0 0 0-.68.508 2.692 2.692 0 0 0-.461.718 4.09 4.09 0 0 0-.258.829v2.023c.104.365.25.708.438 1.031.187.318.437.576.75.774.312.192.705.289 1.179.289.391 0 .727-.081 1.008-.242.287-.167.521-.394.703-.68.188-.287.326-.615.414-.985.089-.374.133-.773.133-1.195zm6.805 4.289a4.157 4.157 0 0 1-1.602-.297 3.626 3.626 0 0 1-1.226-.851 3.78 3.78 0 0 1-.781-1.297 4.74 4.74 0 0 1-.274-1.641v-.328c0-.687.102-1.299.305-1.836.203-.541.479-1 .828-1.375a3.541 3.541 0 0 1 1.187-.851 3.407 3.407 0 0 1 1.375-.289c.605 0 1.125.104 1.563.312.443.208.805.5 1.086.875.281.37.489.807.625 1.313.135.5.203 1.047.203 1.64v.649h-6.313V728h4.868v-.109a3.594 3.594 0 0 0-.235-1.094 1.96 1.96 0 0 0-.625-.875c-.286-.229-.677-.344-1.172-.344a1.962 1.962 0 0 0-1.617.82 3.082 3.082 0 0 0-.461.993c-.109.39-.164.841-.164 1.351v.328c0 .401.055.779.164 1.133.115.349.279.656.492.922.219.266.482.474.789.625.313.151.667.227 1.063.227.51 0 .943-.105 1.297-.313.354-.208.664-.487.93-.836l.875.695a4.081 4.081 0 0 1-.696.789c-.281.25-.627.454-1.039.61-.406.156-.888.234-1.445.234zm10.437-8.609v1.195h-3.906V733h-1.445v-8.453h5.351zm2.821 6.164 3.898-6.164h1.453V733h-1.453v-6.164L681.055 733h-1.438v-8.453h1.438v6.164zm11.054 1.258c.344 0 .662-.071.953-.211a1.97 1.97 0 0 0 .719-.578c.188-.25.295-.534.321-.852h1.375c-.026.5-.196.966-.508 1.399a3.478 3.478 0 0 1-2.86 1.429c-.635 0-1.19-.112-1.664-.336a3.306 3.306 0 0 1-1.172-.922 4.11 4.11 0 0 1-.695-1.343 5.677 5.677 0 0 1-.226-1.617v-.329c0-.567.075-1.104.226-1.609.156-.51.388-.961.695-1.352.313-.39.704-.697 1.172-.921.474-.224 1.029-.336 1.664-.336.662 0 1.24.135 1.735.406.495.265.883.63 1.164 1.094.286.458.443.979.469 1.562h-1.375a2.078 2.078 0 0 0-.297-.945 1.857 1.857 0 0 0-.688-.672 1.918 1.918 0 0 0-1.008-.258c-.442 0-.815.089-1.117.266a1.956 1.956 0 0 0-.711.703 3.28 3.28 0 0 0-.375.976 5.377 5.377 0 0 0-.109 1.086v.329c0 .369.036.734.109 1.093.073.36.196.685.367.977.178.291.415.526.711.703.302.172.677.258 1.125.258zm8.438-7.422V733h-1.453v-8.453h1.453zm2.836 0v1.172h-7.071v-1.172h7.071zm2.867 1.625v10.078h-1.453v-11.703h1.328l.125 1.625zm5.695 2.531v.164c0 .615-.073 1.185-.218 1.711-.146.521-.36.974-.641 1.36a2.917 2.917 0 0 1-1.024.898c-.406.213-.872.32-1.398.32-.536 0-1.01-.088-1.422-.265a2.809 2.809 0 0 1-1.047-.774 3.956 3.956 0 0 1-.687-1.219 7.055 7.055 0 0 1-.344-1.601v-.875c.063-.625.18-1.185.352-1.68.172-.495.398-.916.679-1.265a2.786 2.786 0 0 1 1.039-.805c.407-.188.875-.281 1.407-.281.531 0 1.002.104 1.414.312.411.203.757.495 1.039.875a4 4 0 0 1 .633 1.367 6.61 6.61 0 0 1 .218 1.758zm-1.453.164v-.164c0-.422-.044-.818-.133-1.187a2.98 2.98 0 0 0-.414-.985 1.974 1.974 0 0 0-.703-.672c-.286-.166-.627-.25-1.023-.25a2.25 2.25 0 0 0-.953.188 2.047 2.047 0 0 0-.68.508 2.692 2.692 0 0 0-.461.718 4.09 4.09 0 0 0-.258.829v2.023c.104.365.25.708.438 1.031.187.318.437.576.75.774.312.192.705.289 1.179.289.391 0 .727-.081 1.008-.242.287-.167.521-.394.703-.68.188-.287.326-.615.414-.985.089-.374.133-.773.133-1.195zm4.86 1.844 3.898-6.164h1.453V733h-1.453v-6.164L715.352 733h-1.438v-8.453h1.438v6.164zm9.117-4.539v10.078h-1.453v-11.703h1.328l.125 1.625zm5.695 2.531v.164c0 .615-.073 1.185-.219 1.711a4.222 4.222 0 0 1-.64 1.36 2.917 2.917 0 0 1-1.024.898c-.406.213-.872.32-1.398.32-.537 0-1.011-.088-1.422-.265a2.8 2.8 0 0 1-1.047-.774 3.936 3.936 0 0 1-.687-1.219 7.001 7.001 0 0 1-.344-1.601v-.875a7.323 7.323 0 0 1 .351-1.68c.172-.495.399-.916.68-1.265a2.786 2.786 0 0 1 1.039-.805c.406-.188.875-.281 1.406-.281.532 0 1.003.104 1.414.312a2.84 2.84 0 0 1 1.039.875c.282.38.493.836.633 1.367.146.526.219 1.112.219 1.758zm-1.453.164v-.164c0-.422-.044-.818-.133-1.187a2.98 2.98 0 0 0-.414-.985 1.982 1.982 0 0 0-.703-.672c-.287-.166-.628-.25-1.023-.25-.365 0-.683.063-.954.188a2.054 2.054 0 0 0-.679.508 2.692 2.692 0 0 0-.461.718 4.09 4.09 0 0 0-.258.829v2.023c.104.365.25.708.437 1.031.188.318.438.576.75.774.313.192.706.289 1.18.289.391 0 .727-.081 1.008-.242a2.05 2.05 0 0 0 .703-.68c.188-.287.326-.615.414-.985.089-.374.133-.773.133-1.195zm2.914 0v-.179c0-.61.089-1.175.266-1.696.177-.526.432-.982.765-1.367a3.41 3.41 0 0 1 1.211-.906 3.755 3.755 0 0 1 1.594-.328c.594 0 1.128.109 1.601.328.48.213.886.515 1.219.906.339.385.597.841.774 1.367a5.24 5.24 0 0 1 .265 1.696v.179c0 .61-.088 1.175-.265 1.695a4.054 4.054 0 0 1-.774 1.368 3.548 3.548 0 0 1-1.211.906c-.468.213-1 .32-1.593.32a3.867 3.867 0 0 1-1.602-.32 3.637 3.637 0 0 1-1.219-.906 4.139 4.139 0 0 1-.765-1.368 5.229 5.229 0 0 1-.266-1.695zm1.445-.179v.179c0 .422.05.821.149 1.195.099.37.247.698.445.985.203.286.456.513.758.68a2.21 2.21 0 0 0 1.055.242c.395 0 .742-.081 1.039-.242.302-.167.552-.394.75-.68.198-.287.346-.615.445-.985.104-.374.156-.773.156-1.195v-.179c0-.417-.052-.81-.156-1.18a3.036 3.036 0 0 0-.453-.992 2.156 2.156 0 0 0-.75-.688c-.297-.167-.646-.25-1.047-.25-.396 0-.745.083-1.047.25a2.247 2.247 0 0 0-.75.688 3.13 3.13 0 0 0-.445.992c-.099.37-.149.763-.149 1.18zm12.032.593h-2.774l-.016-1.156h2.266c.448 0 .82-.044 1.117-.133.302-.088.529-.221.68-.398a.977.977 0 0 0 .227-.656c0-.204-.045-.381-.133-.532a.972.972 0 0 0-.383-.383 1.892 1.892 0 0 0-.641-.226 4.382 4.382 0 0 0-.883-.078h-1.851V733h-1.445v-8.453h3.296c.537 0 1.019.047 1.446.141.432.093.799.236 1.101.429.308.188.542.427.703.719.162.292.243.635.243 1.031 0 .255-.052.498-.157.727a1.78 1.78 0 0 1-.46.609 2.53 2.53 0 0 1-.75.438 3.918 3.918 0 0 1-1.024.211l-.562.429zm0 3.719h-3.297l.718-1.172h2.579c.401 0 .734-.049 1-.148.265-.104.463-.25.593-.438.136-.193.203-.422.203-.687 0-.266-.067-.493-.203-.68-.13-.193-.328-.339-.593-.437-.266-.105-.599-.157-1-.157h-2.196l.016-1.156h2.742l.524.437c.463.037.856.152 1.179.344.323.193.568.438.735.735.166.291.25.609.25.953 0 .396-.076.745-.227 1.047a1.986 1.986 0 0 1-.641.757 3.141 3.141 0 0 1-1.023.454 5.686 5.686 0 0 1-1.359.148zm10.171-1.445v-4.352c0-.333-.067-.622-.203-.867a1.327 1.327 0 0 0-.593-.578c-.266-.136-.594-.203-.985-.203-.364 0-.685.062-.961.187a1.669 1.669 0 0 0-.64.492 1.082 1.082 0 0 0-.227.657h-1.445c0-.302.078-.602.234-.899a2.61 2.61 0 0 1 .672-.804 3.362 3.362 0 0 1 1.063-.579c.416-.145.88-.218 1.39-.218.615 0 1.156.104 1.625.312.474.208.844.524 1.109.945.271.417.407.941.407 1.571v3.937c0 .282.023.581.07.899.052.317.128.591.227.82V733h-1.508a2.715 2.715 0 0 1-.172-.664 5.314 5.314 0 0 1-.063-.781zm.25-3.68.016 1.016h-1.461a5.37 5.37 0 0 0-1.101.101 2.54 2.54 0 0 0-.813.289 1.38 1.38 0 0 0-.5.492c-.115.193-.172.42-.172.68 0 .266.06.508.18.727.12.218.299.393.539.523.245.125.544.188.898.188.443 0 .834-.094 1.172-.282.339-.187.607-.416.805-.687.203-.271.312-.534.328-.789l.617.695c-.036.219-.135.461-.297.727a3.506 3.506 0 0 1-1.601 1.367 3.112 3.112 0 0 1-1.235.234c-.572 0-1.075-.112-1.507-.336a2.574 2.574 0 0 1-1-.898 2.374 2.374 0 0 1-.352-1.274c0-.453.089-.851.266-1.195.177-.349.432-.638.765-.867a3.641 3.641 0 0 1 1.203-.531c.469-.12.993-.18 1.571-.18h1.679zm6.789-3.328V733h-1.453v-8.453h1.453zm2.836 0v1.172h-7.07v-1.172h7.07zm2.61 2.906h2.539c.682 0 1.258.12 1.726.359.469.235.823.56 1.063.977.245.412.367.88.367 1.406 0 .391-.068.758-.203 1.102a2.491 2.491 0 0 1-.609.891 2.824 2.824 0 0 1-.993.601c-.39.141-.841.211-1.351.211h-3.594v-8.453h1.445v7.265h2.149c.417 0 .75-.075 1-.226.25-.151.43-.346.539-.586a1.795 1.795 0 0 0 0-1.5 1.396 1.396 0 0 0-.539-.609c-.25-.167-.583-.25-1-.25h-2.539v-1.188zm10.883 4.516c.343 0 .661-.071.953-.211.291-.141.531-.334.718-.578.188-.25.295-.534.321-.852h1.375c-.026.5-.196.966-.508 1.399a3.47 3.47 0 0 1-1.211 1.039c-.5.26-1.049.39-1.648.39-.636 0-1.19-.112-1.664-.336a3.289 3.289 0 0 1-1.172-.922 4.113 4.113 0 0 1-.696-1.343 5.677 5.677 0 0 1-.226-1.617v-.329c0-.567.075-1.104.226-1.609.157-.51.388-.961.696-1.352.312-.39.703-.697 1.172-.921.474-.224 1.028-.336 1.664-.336.661 0 1.239.135 1.734.406.495.265.883.63 1.164 1.094.287.458.443.979.469 1.562h-1.375a2.078 2.078 0 0 0-.297-.945 1.857 1.857 0 0 0-.688-.672 1.917 1.917 0 0 0-1.007-.258c-.443 0-.815.089-1.118.266a1.971 1.971 0 0 0-.711.703 3.305 3.305 0 0 0-.374.976c-.073.355-.11.717-.11 1.086v.329c0 .369.037.734.11 1.093.072.36.195.685.367.977.177.291.414.526.711.703.302.172.677.258 1.125.258zm6.703-3h1.562L784.461 733h-1.563l2.446-4.031zm1.211-4.422h3.531V733h-1.445v-7.281h-2.086c-.412 0-.748.07-1.008.211a1.305 1.305 0 0 0-.57.531 1.395 1.395 0 0 0-.016 1.344c.109.208.281.38.516.515.234.136.536.203.906.203h2.648v1.188h-2.648c-.485 0-.914-.065-1.289-.195a2.839 2.839 0 0 1-.953-.539 2.343 2.343 0 0 1-.594-.821 2.588 2.588 0 0 1-.203-1.031c0-.37.07-.711.211-1.023.146-.313.354-.586.625-.821a2.877 2.877 0 0 1 1.008-.539c.401-.13.856-.195 1.367-.195z" fill="#fff"/></g><defs><clipPath id="b"><path fill="#fff" transform="translate(486 308)" d="M0 0h468v22H0z"/></clipPath><clipPath id="c"><path fill="#fff" transform="translate(486 402)" d="M0 0h468v22H0z"/></clipPath><clipPath id="d"><path fill="#fff" transform="translate(486 512)" d="M0 0h468v22H0z"/></clipPath><clipPath id="e"><path fill="#fff" transform="translate(922 554)" d="M0 0h24v24H0z"/></clipPath><clipPath id="f"><path fill="#fff" transform="translate(486 606)" d="M0 0h468v22H0z"/></clipPath><clipPath id="g"><path fill="#fff" transform="translate(922 648)" d="M0 0h24v24H0z"/></clipPath><filter id="a" x="450" y="237" width="540" height="559" filterUnits="userSpaceOnUse" color-interpolation-filters="sRGB"><feFlood flood-opacity="0" result="BackgroundImageFix"/><feColorMatrix in="SourceAlpha" values="0 0 0 0 0 0 0 0 0 0 0 0 0 0 0 0 0 0 127 0" result="hardAlpha"/><feOffset dy="4"/><feGaussianBlur stdDeviation="10"/><feColorMatrix values="0 0 0 0 0 0 0 0 0 0 0 0 0 0 0 0 0 0 0.08 0"/><feBlend in2="BackgroundImageFix" result="effect1_dropShadow_233_125"/><feBlend in="SourceGraphic" in2="effect1_dropShadow_233_125" result="shape"/></filter></defs></svg>